REM DIRINDEX 1\2,1\3,1\4,1\5\6,1\5\7,1\8
REM DIRNAME cjc115,folder01,folder02,folder03,folder04,folder05,folder06,folder07
TITLE ""
FILE "117 【117】Unit7 (1321 token_1332 discord).mp3" MP3
  TRACK 01 AUDIO
    TITLE "0:"
    INDEX 01 00:00:00
  TRACK 02 AUDIO
    TITLE "2:cjc115_4578"
    INDEX 01 00:00:07
  TRACK 03 AUDIO
    TITLE "0:"
    INDEX 01 00:01:15
  TRACK 04 AUDIO
    TITLE "3:cjc115_4579"
    INDEX 01 00:01:21
  TRACK 05 AUDIO
    TITLE "0:"
    INDEX 01 00:03:41
  TRACK 06 AUDIO
    TITLE "4:cjc115_4580"
    INDEX 01 00:03:51
  TRACK 07 AUDIO
    TITLE "0:"
    INDEX 01 00:06:61
  TRACK 08 AUDIO
    TITLE "2:cjc115_4581"
    INDEX 01 00:07:64
  TRACK 09 AUDIO
    TITLE "0:"
    INDEX 01 00:09:08
  TRACK 10 AUDIO
    TITLE "3:cjc115_4582"
    INDEX 01 00:09:14
  TRACK 11 AUDIO
    TITLE "0:"
    INDEX 01 00:10:53
  TRACK 12 AUDIO
    TITLE "4:cjc115_4583"
    INDEX 01 00:10:59
  TRACK 13 AUDIO
    TITLE "0:"
    INDEX 01 00:14:70
  TRACK 14 AUDIO
    TITLE "2:cjc115_4584"
    INDEX 01 00:15:74
  TRACK 15 AUDIO
    TITLE "0:"
    INDEX 01 00:17:12
  TRACK 16 AUDIO
    TITLE "3:cjc115_4585"
    INDEX 01 00:17:25
  TRACK 17 AUDIO
    TITLE "0:"
    INDEX 01 00:19:30
  TRACK 18 AUDIO
    TITLE "4:cjc115_4586"
    INDEX 01 00:19:50
  TRACK 19 AUDIO
    TITLE "0:"
    INDEX 01 00:23:36
  TRACK 20 AUDIO
    TITLE "2:cjc115_4587"
    INDEX 01 00:24:43
  TRACK 21 AUDIO
    TITLE "0:"
    INDEX 01 00:25:70
  TRACK 22 AUDIO
    TITLE "3:cjc115_4588"
    INDEX 01 00:25:74
  TRACK 23 AUDIO
    TITLE "0:"
    INDEX 01 00:27:14
  TRACK 24 AUDIO
    TITLE "4:cjc115_4589"
    INDEX 01 00:27:16
  TRACK 25 AUDIO
    TITLE "0:"
    INDEX 01 00:31:71
  TRACK 26 AUDIO
    TITLE "2:cjc115_4590"
    INDEX 01 00:33:03
  TRACK 27 AUDIO
    TITLE "0:"
    INDEX 01 00:34:24
  TRACK 28 AUDIO
    TITLE "3:cjc115_4591"
    INDEX 01 00:34:32
  TRACK 29 AUDIO
    TITLE "0:"
    INDEX 01 00:37:46
  TRACK 30 AUDIO
    TITLE "4:cjc115_4592"
    INDEX 01 00:37:56
  TRACK 31 AUDIO
    TITLE "0:"
    INDEX 01 00:41:73
  TRACK 32 AUDIO
    TITLE "2:cjc115_4593"
    INDEX 01 00:43:07
  TRACK 33 AUDIO
    TITLE "0:"
    INDEX 01 00:44:28
  TRACK 34 AUDIO
    TITLE "3:cjc115_4594"
    INDEX 01 00:44:38
  TRACK 35 AUDIO
    TITLE "0:"
    INDEX 01 00:45:49
  TRACK 36 AUDIO
    TITLE "4:cjc115_4595"
    INDEX 01 00:45:57
  TRACK 37 AUDIO
    TITLE "0:"
    INDEX 01 00:49:21
  TRACK 38 AUDIO
    TITLE "2:cjc115_4596"
    INDEX 01 00:50:31
  TRACK 39 AUDIO
    TITLE "0:"
    INDEX 01 00:51:48
  TRACK 40 AUDIO
    TITLE "3:cjc115_4597"
    INDEX 01 00:51:58
  TRACK 41 AUDIO
    TITLE "0:"
    INDEX 01 00:53:60
  TRACK 42 AUDIO
    TITLE "4:cjc115_4598"
    INDEX 01 00:53:62
  TRACK 43 AUDIO
    TITLE "0:"
    INDEX 01 00:58:07
  TRACK 44 AUDIO
    TITLE "2:cjc115_4599"
    INDEX 01 00:59:16
  TRACK 45 AUDIO
    TITLE "0:"
    INDEX 01 01:00:25
  TRACK 46 AUDIO
    TITLE "3:cjc115_4600"
    INDEX 01 01:00:35
  TRACK 47 AUDIO
    TITLE "0:"
    INDEX 01 01:01:60
  TRACK 48 AUDIO
    TITLE "4:cjc115_4601"
    INDEX 01 01:01:66
  TRACK 49 AUDIO
    TITLE "0:"
    INDEX 01 01:05:48
  TRACK 50 AUDIO
    TITLE "2:cjc115_4602"
    INDEX 01 01:06:55
  TRACK 51 AUDIO
    TITLE "0:"
    INDEX 01 01:08:03
  TRACK 52 AUDIO
    TITLE "3:cjc115_4603"
    INDEX 01 01:08:09
  TRACK 53 AUDIO
    TITLE "0:"
    INDEX 01 01:09:30
  TRACK 54 AUDIO
    TITLE "4:cjc115_4604"
    INDEX 01 01:09:32
  TRACK 55 AUDIO
    TITLE "0:"
    INDEX 01 01:14:45
  TRACK 56 AUDIO
    TITLE "2:cjc115_4605"
    INDEX 01 01:15:52
  TRACK 57 AUDIO
    TITLE "0:"
    INDEX 01 01:16:67
  TRACK 58 AUDIO
    TITLE "3:cjc115_4606"
    INDEX 01 01:17:00
  TRACK 59 AUDIO
    TITLE "0:"
    INDEX 01 01:19:66
  TRACK 60 AUDIO
    TITLE "4:cjc115_4607"
    INDEX 01 01:19:74
  TRACK 61 AUDIO
    TITLE "0:"
    INDEX 01 01:23:50
  TRACK 62 AUDIO
    TITLE "2:cjc115_4608"
    INDEX 01 01:24:53
  TRACK 63 AUDIO
    TITLE "0:"
    INDEX 01 01:26:01
  TRACK 64 AUDIO
    TITLE "3:cjc115_4609"
    INDEX 01 01:26:07
  TRACK 65 AUDIO
    TITLE "0:"
    INDEX 01 01:27:46
  TRACK 66 AUDIO
    TITLE "4:cjc115_4610"
    INDEX 01 01:27:50
  TRACK 67 AUDIO
    TITLE "0:"
    INDEX 01 01:31:28
  TRACK 68 AUDIO
    TITLE "2:cjc115_4611"
    INDEX 01 01:32:33
  TRACK 69 AUDIO
    TITLE "0:"
    INDEX 01 01:33:46
  TRACK 70 AUDIO
    TITLE "3:cjc115_4612"
    INDEX 01 01:33:52
  TRACK 71 AUDIO
    TITLE "0:"
    INDEX 01 01:35:51
  TRACK 72 AUDIO
    TITLE "4:cjc115_4613"
    INDEX 01 01:35:53
  TRACK 73 AUDIO
    TITLE "0:"
    INDEX 01 01:39:66
